<svg width="24" height="24" viewBox="0 0 24 24" fill="none" xmlns="http://www.w3.org/2000/svg">
<g id="Icons/24px/mail2 Copy 2">
<path id="Path 3" d="M16.2443 8.33277C16.606 7.93031 17.2376 7.88681 17.6549 8.23561C18.0723 8.5844 18.1174 9.19342 17.7557 9.59587L12 16L6.24433 9.59587C5.88262 9.19342 5.92773 8.5844 6.34509 8.23561C6.76244 7.88681 7.394 7.93031 7.7557 8.33277L12 13.0552L16.2443 8.33277Z" fill="#4A4A4A"/>
<mask id="mask0_0_249" style="mask-type:alpha" maskUnits="userSpaceOnUse" x="6" y="8" width="12" height="8">
<path id="Path 3_2" d="M16.2443 8.33277C16.606 7.93031 17.2376 7.88681 17.6549 8.23561C18.0723 8.5844 18.1174 9.19342 17.7557 9.59587L12 16L6.24433 9.59587C5.88262 9.19342 5.92773 8.5844 6.34509 8.23561C6.76244 7.88681 7.394 7.93031 7.7557 8.33277L12 13.0552L16.2443 8.33277Z" fill="white"/>
</mask>
<g mask="url(#mask0_0_249)">
<g id="color">
<rect id="color_2" width="24" height="24" fill="#ffffff"/>
</g>
</g>
</g>
</svg>
